%TF.GenerationSoftware,KiCad,Pcbnew,9.0.2-rc1*%
%TF.CreationDate,2025-08-19T16:09:16+10:00*%
%TF.ProjectId,BLDC_Version1_1_0,424c4443-5f56-4657-9273-696f6e315f31,rev?*%
%TF.SameCoordinates,Original*%
%TF.FileFunction,Soldermask,Top*%
%TF.FilePolarity,Negative*%
%FSLAX46Y46*%
G04 Gerber Fmt 4.6, Leading zero omitted, Abs format (unit mm)*
G04 Created by KiCad (PCBNEW 9.0.2-rc1) date 2025-08-19 16:09:16*
%MOMM*%
%LPD*%
G01*
G04 APERTURE LIST*
G04 Aperture macros list*
%AMRoundRect*
0 Rectangle with rounded corners*
0 $1 Rounding radius*
0 $2 $3 $4 $5 $6 $7 $8 $9 X,Y pos of 4 corners*
0 Add a 4 corners polygon primitive as box body*
4,1,4,$2,$3,$4,$5,$6,$7,$8,$9,$2,$3,0*
0 Add four circle primitives for the rounded corners*
1,1,$1+$1,$2,$3*
1,1,$1+$1,$4,$5*
1,1,$1+$1,$6,$7*
1,1,$1+$1,$8,$9*
0 Add four rect primitives between the rounded corners*
20,1,$1+$1,$2,$3,$4,$5,0*
20,1,$1+$1,$4,$5,$6,$7,0*
20,1,$1+$1,$6,$7,$8,$9,0*
20,1,$1+$1,$8,$9,$2,$3,0*%
%AMFreePoly0*
4,1,6,1.000000,0.000000,0.500000,-0.750000,-0.500000,-0.750000,-0.500000,0.750000,0.500000,0.750000,1.000000,0.000000,1.000000,0.000000,$1*%
%AMFreePoly1*
4,1,6,0.500000,-0.750000,-0.650000,-0.750000,-0.150000,0.000000,-0.650000,0.750000,0.500000,0.750000,0.500000,-0.750000,0.500000,-0.750000,$1*%
G04 Aperture macros list end*
%ADD10C,2.000000*%
%ADD11RoundRect,0.250000X0.475000X-0.337500X0.475000X0.337500X-0.475000X0.337500X-0.475000X-0.337500X0*%
%ADD12R,1.650000X4.500000*%
%ADD13C,5.000000*%
%ADD14O,2.200000X1.200000*%
%ADD15C,3.000000*%
%ADD16R,1.500000X2.800000*%
%ADD17R,1.300000X0.600000*%
%ADD18R,2.500000X3.500000*%
%ADD19RoundRect,0.250000X-0.350000X-0.450000X0.350000X-0.450000X0.350000X0.450000X-0.350000X0.450000X0*%
%ADD20RoundRect,0.250000X0.450000X-0.350000X0.450000X0.350000X-0.450000X0.350000X-0.450000X-0.350000X0*%
%ADD21RoundRect,0.250000X0.337500X0.475000X-0.337500X0.475000X-0.337500X-0.475000X0.337500X-0.475000X0*%
%ADD22O,0.280000X1.600000*%
%ADD23O,1.600000X0.280000*%
%ADD24R,5.000000X5.000000*%
%ADD25R,2.000000X2.000000*%
%ADD26FreePoly0,0.000000*%
%ADD27FreePoly1,0.000000*%
%ADD28RoundRect,0.250000X-0.475000X0.337500X-0.475000X-0.337500X0.475000X-0.337500X0.475000X0.337500X0*%
%ADD29R,2.800000X1.500000*%
%ADD30RoundRect,0.237500X0.287500X0.237500X-0.287500X0.237500X-0.287500X-0.237500X0.287500X-0.237500X0*%
%ADD31R,1.100000X0.600000*%
%ADD32R,0.900000X1.500000*%
%ADD33R,1.500000X0.900000*%
%ADD34R,0.900000X0.900000*%
%ADD35RoundRect,0.250000X0.350000X-0.850000X0.350000X0.850000X-0.350000X0.850000X-0.350000X-0.850000X0*%
%ADD36RoundRect,0.249997X2.650003X-2.950003X2.650003X2.950003X-2.650003X2.950003X-2.650003X-2.950003X0*%
%ADD37C,2.800000*%
%ADD38R,0.600000X1.700000*%
%ADD39R,1.000000X2.700000*%
%ADD40RoundRect,0.250000X-0.337500X-0.475000X0.337500X-0.475000X0.337500X0.475000X-0.337500X0.475000X0*%
%ADD41RoundRect,0.250000X-0.450000X0.350000X-0.450000X-0.350000X0.450000X-0.350000X0.450000X0.350000X0*%
%ADD42RoundRect,0.250000X0.325000X0.450000X-0.325000X0.450000X-0.325000X-0.450000X0.325000X-0.450000X0*%
%ADD43RoundRect,0.162500X0.162500X-0.437500X0.162500X0.437500X-0.162500X0.437500X-0.162500X-0.437500X0*%
%ADD44R,4.700000X4.500000*%
%ADD45RoundRect,0.175000X0.175000X-0.325000X0.175000X0.325000X-0.175000X0.325000X-0.175000X-0.325000X0*%
%ADD46R,2.500000X1.500000*%
%ADD47R,1.200000X3.500000*%
%ADD48RoundRect,0.249999X0.450001X1.425001X-0.450001X1.425001X-0.450001X-1.425001X0.450001X-1.425001X0*%
%ADD49RoundRect,0.162500X-0.162500X0.437500X-0.162500X-0.437500X0.162500X-0.437500X0.162500X0.437500X0*%
%ADD50RoundRect,0.175000X-0.175000X0.325000X-0.175000X-0.325000X0.175000X-0.325000X0.175000X0.325000X0*%
%ADD51RoundRect,0.255000X0.595000X0.595000X-0.595000X0.595000X-0.595000X-0.595000X0.595000X-0.595000X0*%
%ADD52RoundRect,0.249999X-0.450001X-1.425001X0.450001X-1.425001X0.450001X1.425001X-0.450001X1.425001X0*%
%ADD53RoundRect,0.250000X0.350000X0.450000X-0.350000X0.450000X-0.350000X-0.450000X0.350000X-0.450000X0*%
%ADD54R,1.800000X1.100000*%
%ADD55R,1.070000X0.530000*%
%ADD56R,0.600000X1.100000*%
%ADD57R,1.800000X2.000000*%
%ADD58R,0.990000X0.410000*%
%ADD59R,1.720000X2.230000*%
%ADD60O,2.000000X1.200000*%
%ADD61O,1.800000X1.200000*%
%ADD62R,1.300000X0.300000*%
%ADD63RoundRect,0.255000X-0.595000X-0.595000X0.595000X-0.595000X0.595000X0.595000X-0.595000X0.595000X0*%
%ADD64RoundRect,0.250001X-0.624999X0.462499X-0.624999X-0.462499X0.624999X-0.462499X0.624999X0.462499X0*%
%ADD65R,1.000000X2.200000*%
G04 APERTURE END LIST*
%TO.C,AMPL*%
G36*
X149775000Y-112250000D02*
G01*
X152225000Y-112250000D01*
X152225000Y-113750000D01*
X149775000Y-113750000D01*
X149775000Y-112250000D01*
G37*
%TO.C,I_0*%
G36*
X145775000Y-112250000D02*
G01*
X148225000Y-112250000D01*
X148225000Y-113750000D01*
X145775000Y-113750000D01*
X145775000Y-112250000D01*
G37*
%TO.C,I_1*%
G36*
X145775000Y-115250000D02*
G01*
X148225000Y-115250000D01*
X148225000Y-116750000D01*
X145775000Y-116750000D01*
X145775000Y-115250000D01*
G37*
%TO.C,DRV*%
G36*
X149775000Y-115250000D02*
G01*
X152225000Y-115250000D01*
X152225000Y-116750000D01*
X149775000Y-116750000D01*
X149775000Y-115250000D01*
G37*
%TD*%
D10*
%TO.C,TP11*%
X143750000Y-105250000D03*
%TD*%
D11*
%TO.C,C21*%
X161750000Y-98037500D03*
X161750000Y-95962500D03*
%TD*%
D12*
%TO.C,C11*%
X168000000Y-127500000D03*
X168000000Y-136500000D03*
%TD*%
D13*
%TO.C,CN2*%
X174500000Y-115400120D03*
X174500000Y-122600120D03*
D14*
X180500000Y-125750120D03*
X180500000Y-112250120D03*
%TD*%
D15*
%TO.C,5V*%
X120900000Y-126500000D03*
%TD*%
D16*
%TO.C,TP5*%
X170055000Y-92000000D03*
%TD*%
D17*
%TO.C,U4*%
X138300000Y-131400000D03*
X138300000Y-132680000D03*
X138300000Y-133950000D03*
X138300000Y-135220000D03*
X143700000Y-135220000D03*
X143700000Y-133950000D03*
X143700000Y-132680000D03*
X143700000Y-131400000D03*
D18*
X141000000Y-133310000D03*
%TD*%
D19*
%TO.C,R7*%
X134000000Y-120000000D03*
X136000000Y-120000000D03*
%TD*%
D10*
%TO.C,TP12*%
X147250000Y-108750000D03*
%TD*%
D20*
%TO.C,R13*%
X173055000Y-89000000D03*
X173055000Y-87000000D03*
%TD*%
D19*
%TO.C,R4*%
X128250000Y-71750000D03*
X130250000Y-71750000D03*
%TD*%
D21*
%TO.C,C1*%
X114037500Y-115620000D03*
X111962500Y-115620000D03*
%TD*%
D22*
%TO.C,U3*%
X165750000Y-101300000D03*
X165250000Y-101300000D03*
X164750000Y-101300000D03*
X164250000Y-101300000D03*
X163750000Y-101300000D03*
X163250000Y-101300000D03*
X162750000Y-101300000D03*
X162250000Y-101300000D03*
X161750000Y-101300000D03*
X161250000Y-101300000D03*
X160750000Y-101300000D03*
X160250000Y-101300000D03*
D23*
X158800000Y-102750000D03*
X158800000Y-103250000D03*
X158800000Y-103750000D03*
X158800000Y-104250000D03*
X158800000Y-104750000D03*
X158800000Y-105250000D03*
X158800000Y-105750000D03*
X158800000Y-106250000D03*
X158800000Y-106750000D03*
X158800000Y-107250000D03*
X158800000Y-107750000D03*
X158800000Y-108250000D03*
D22*
X160250000Y-109700000D03*
X160750000Y-109700000D03*
X161250000Y-109700000D03*
X161750000Y-109700000D03*
X162250000Y-109700000D03*
X162750000Y-109700000D03*
X163250000Y-109700000D03*
X163750000Y-109700000D03*
X164250000Y-109700000D03*
X164750000Y-109700000D03*
X165250000Y-109700000D03*
X165750000Y-109700000D03*
D23*
X167200000Y-108250000D03*
X167200000Y-107750000D03*
X167200000Y-107250000D03*
X167200000Y-106750000D03*
X167200000Y-106250000D03*
X167200000Y-105750000D03*
X167200000Y-105250000D03*
X167200000Y-104750000D03*
X167200000Y-104250000D03*
X167200000Y-103750000D03*
X167200000Y-103250000D03*
X167200000Y-102750000D03*
D24*
X163000000Y-105500000D03*
%TD*%
D10*
%TO.C,TP9*%
X143750000Y-101750000D03*
%TD*%
D25*
%TO.C,D8*%
X160462500Y-118770000D03*
X160462500Y-123170000D03*
%TD*%
D26*
%TO.C,AMPL*%
X150275000Y-113000000D03*
D27*
X151725000Y-113000000D03*
%TD*%
D28*
%TO.C,CV*%
X119500000Y-112992500D03*
X119500000Y-115067500D03*
%TD*%
D21*
%TO.C,C2*%
X114037500Y-113250000D03*
X111962500Y-113250000D03*
%TD*%
D19*
%TO.C,R12*%
X173750000Y-98000000D03*
X175750000Y-98000000D03*
%TD*%
D29*
%TO.C,TP15*%
X139100000Y-98400000D03*
%TD*%
D30*
%TO.C,D1*%
X134875000Y-74950000D03*
X133125000Y-74950000D03*
%TD*%
D11*
%TO.C,C3*%
X124300000Y-126337500D03*
X124300000Y-124262500D03*
%TD*%
D16*
%TO.C,TP6*%
X154055000Y-84000000D03*
%TD*%
D25*
%TO.C,D7*%
X142950000Y-125500000D03*
X138550000Y-125500000D03*
%TD*%
D11*
%TO.C,C27*%
X169500000Y-115007500D03*
X169500000Y-112932500D03*
%TD*%
D29*
%TO.C,TP16*%
X134400000Y-98400000D03*
%TD*%
D31*
%TO.C,U10*%
X125100000Y-70700000D03*
X125100000Y-69750000D03*
X125100000Y-68800000D03*
X122400000Y-68800000D03*
X122400000Y-69750000D03*
X122400000Y-70700000D03*
%TD*%
D12*
%TO.C,C12*%
X156400000Y-127500000D03*
X156400000Y-136500000D03*
%TD*%
D32*
%TO.C,U1*%
X111490000Y-108750000D03*
X112760000Y-108750000D03*
X114030000Y-108750000D03*
X115300000Y-108750000D03*
X116570000Y-108750000D03*
X117840000Y-108750000D03*
X119110000Y-108750000D03*
X120380000Y-108750000D03*
X121650000Y-108750000D03*
X122920000Y-108750000D03*
X124190000Y-108750000D03*
X125460000Y-108750000D03*
X126730000Y-108750000D03*
X128000000Y-108750000D03*
D33*
X129250000Y-106985000D03*
X129250000Y-105715000D03*
X129250000Y-104445000D03*
X129250000Y-103175000D03*
X129250000Y-101905000D03*
X129250000Y-100635000D03*
X129250000Y-99365000D03*
X129250000Y-98095000D03*
X129250000Y-96825000D03*
X129250000Y-95555000D03*
X129250000Y-94285000D03*
X129250000Y-93015000D03*
D32*
X128000000Y-91250000D03*
X126730000Y-91250000D03*
X125460000Y-91250000D03*
X124190000Y-91250000D03*
X122920000Y-91250000D03*
X121650000Y-91250000D03*
X120380000Y-91250000D03*
X119110000Y-91250000D03*
X117840000Y-91250000D03*
X116570000Y-91250000D03*
X115300000Y-91250000D03*
X114030000Y-91250000D03*
X112760000Y-91250000D03*
X111490000Y-91250000D03*
D34*
X117810000Y-102900000D03*
X119210000Y-102900000D03*
X120610000Y-102900000D03*
X120610000Y-102900000D03*
X117810000Y-101500000D03*
X117810000Y-101500000D03*
X119210000Y-101500000D03*
X120610000Y-101500000D03*
X117810000Y-100100000D03*
X119210000Y-100100000D03*
X120610000Y-100100000D03*
%TD*%
D35*
%TO.C,U2*%
X126720000Y-127040000D03*
D36*
X129000000Y-120740000D03*
D35*
X131280000Y-127040000D03*
%TD*%
D37*
%TO.C,CN1*%
X172620000Y-67000000D03*
X165000000Y-67000000D03*
X157380000Y-67000000D03*
%TD*%
D38*
%TO.C,CN3*%
X131130000Y-65750000D03*
X129880000Y-65750000D03*
X128630000Y-65750000D03*
X127380000Y-65750000D03*
X126130000Y-65750000D03*
X124880000Y-65750000D03*
D39*
X132970000Y-62250000D03*
X123030000Y-62250000D03*
%TD*%
D31*
%TO.C,U11*%
X140350000Y-70450000D03*
X140350000Y-69500000D03*
X140350000Y-68550000D03*
X137650000Y-68550000D03*
X137650000Y-69500000D03*
X137650000Y-70450000D03*
%TD*%
D10*
%TO.C,TP13*%
X143750000Y-108750000D03*
%TD*%
%TO.C,TP8*%
X147250000Y-101750000D03*
%TD*%
D40*
%TO.C,C8*%
X139862500Y-128900000D03*
X141937500Y-128900000D03*
%TD*%
D41*
%TO.C,R27*%
X154500000Y-113000000D03*
X154500000Y-115000000D03*
%TD*%
D42*
%TO.C,D4*%
X134825000Y-77765000D03*
X132775000Y-77765000D03*
%TD*%
D20*
%TO.C,R23*%
X155000000Y-93500000D03*
X155000000Y-91500000D03*
%TD*%
D28*
%TO.C,C17*%
X150500000Y-100962500D03*
X150500000Y-103037500D03*
%TD*%
D43*
%TO.C,Q7*%
X165150000Y-88825000D03*
X166420000Y-88825000D03*
X167690000Y-88825000D03*
X168960000Y-88825000D03*
D44*
X167055000Y-85325000D03*
D45*
X165060000Y-83075000D03*
X166390000Y-83075000D03*
X167720000Y-83075000D03*
X169050000Y-83075000D03*
%TD*%
D46*
%TO.C,L1*%
X129500000Y-130625000D03*
X129500000Y-135225000D03*
%TD*%
D40*
%TO.C,C6*%
X163742500Y-118750000D03*
X165817500Y-118750000D03*
%TD*%
D47*
%TO.C,C10*%
X123000000Y-129930000D03*
X123000000Y-135270000D03*
%TD*%
D40*
%TO.C,C18*%
X133362500Y-91400000D03*
X135437500Y-91400000D03*
%TD*%
D48*
%TO.C,R14*%
X181050000Y-77000000D03*
X174950000Y-77000000D03*
%TD*%
D16*
%TO.C,TP2*%
X180500000Y-98750000D03*
%TD*%
D19*
%TO.C,R9*%
X155462500Y-123000000D03*
X157462500Y-123000000D03*
%TD*%
%TO.C,R10*%
X133400000Y-132000000D03*
X135400000Y-132000000D03*
%TD*%
D11*
%TO.C,C13*%
X172000000Y-110037500D03*
X172000000Y-107962500D03*
%TD*%
D19*
%TO.C,R19*%
X177000000Y-103000000D03*
X179000000Y-103000000D03*
%TD*%
D29*
%TO.C,TP14*%
X134300000Y-94900000D03*
%TD*%
D30*
%TO.C,D2*%
X134875000Y-72360000D03*
X133125000Y-72360000D03*
%TD*%
D28*
%TO.C,C14*%
X172000000Y-103962500D03*
X172000000Y-106037500D03*
%TD*%
D49*
%TO.C,Q4*%
X179960000Y-83175000D03*
X178690000Y-83175000D03*
X177420000Y-83175000D03*
X176150000Y-83175000D03*
D44*
X178055000Y-86675000D03*
D50*
X180050000Y-88925000D03*
X178720000Y-88925000D03*
X177390000Y-88925000D03*
X176060000Y-88925000D03*
%TD*%
D26*
%TO.C,I_0*%
X146275000Y-113000000D03*
D27*
X147725000Y-113000000D03*
%TD*%
D28*
%TO.C,C4*%
X149000000Y-133032500D03*
X149000000Y-135107500D03*
%TD*%
D19*
%TO.C,R3*%
X128250000Y-74750000D03*
X130250000Y-74750000D03*
%TD*%
D51*
%TO.C,U6*%
X123000000Y-85000000D03*
X123000000Y-82460000D03*
X122980000Y-79920000D03*
%TD*%
D16*
%TO.C,TP22*%
X137055000Y-84000000D03*
%TD*%
D40*
%TO.C,C9*%
X155462500Y-119000000D03*
X157537500Y-119000000D03*
%TD*%
%TO.C,C7*%
X133962500Y-123000000D03*
X136037500Y-123000000D03*
%TD*%
D19*
%TO.C,R2*%
X128250000Y-77750000D03*
X130250000Y-77750000D03*
%TD*%
D20*
%TO.C,R28*%
X164500000Y-115000000D03*
X164500000Y-113000000D03*
%TD*%
D52*
%TO.C,R29*%
X147950000Y-77000000D03*
X154050000Y-77000000D03*
%TD*%
D42*
%TO.C,D6*%
X140025000Y-120000000D03*
X137975000Y-120000000D03*
%TD*%
D53*
%TO.C,R5*%
X165750000Y-122750000D03*
X163750000Y-122750000D03*
%TD*%
D28*
%TO.C,C5*%
X146730000Y-133032500D03*
X146730000Y-135107500D03*
%TD*%
D43*
%TO.C,Q2*%
X147150000Y-88825000D03*
X148420000Y-88825000D03*
X149690000Y-88825000D03*
X150960000Y-88825000D03*
D44*
X149055000Y-85325000D03*
D45*
X147060000Y-83075000D03*
X148390000Y-83075000D03*
X149720000Y-83075000D03*
X151050000Y-83075000D03*
%TD*%
D52*
%TO.C,R18*%
X162950000Y-77000000D03*
X169050000Y-77000000D03*
%TD*%
D21*
%TO.C,C22*%
X154287500Y-105750000D03*
X152212500Y-105750000D03*
%TD*%
D51*
%TO.C,U9*%
X187000000Y-109250000D03*
X187000000Y-106710000D03*
X186980000Y-104170000D03*
X186980000Y-101630000D03*
X187000000Y-99090000D03*
X187000000Y-96550000D03*
%TD*%
D28*
%TO.C,C15*%
X128200000Y-112992500D03*
X128200000Y-115067500D03*
%TD*%
D26*
%TO.C,I_1*%
X146275000Y-116000000D03*
D27*
X147725000Y-116000000D03*
%TD*%
D41*
%TO.C,R25*%
X152500000Y-101000000D03*
X152500000Y-103000000D03*
%TD*%
D54*
%TO.C,SW1*%
X134150000Y-112150000D03*
X140350000Y-112150000D03*
X134150000Y-115850000D03*
X140350000Y-115850000D03*
%TD*%
D16*
%TO.C,TP19*%
X152000000Y-92500000D03*
%TD*%
D11*
%TO.C,C20*%
X163750000Y-98037500D03*
X163750000Y-95962500D03*
%TD*%
D49*
%TO.C,Q6*%
X160960000Y-83175000D03*
X159690000Y-83175000D03*
X158420000Y-83175000D03*
X157150000Y-83175000D03*
D44*
X159055000Y-86675000D03*
D50*
X161050000Y-88925000D03*
X159720000Y-88925000D03*
X158390000Y-88925000D03*
X157060000Y-88925000D03*
%TD*%
D10*
%TO.C,TP10*%
X147250000Y-105250000D03*
%TD*%
D55*
%TO.C,D9*%
X119350000Y-118550000D03*
X119350000Y-119500000D03*
X119350000Y-120450000D03*
X121650000Y-120450000D03*
X121650000Y-119500000D03*
X121650000Y-118550000D03*
%TD*%
D54*
%TO.C,SW2*%
X140350000Y-109850000D03*
X134150000Y-109850000D03*
X140350000Y-106150000D03*
X134150000Y-106150000D03*
%TD*%
D56*
%TO.C,U13*%
X114950000Y-71650000D03*
X114000000Y-71650000D03*
X113050000Y-71650000D03*
X113050000Y-74350000D03*
X114000000Y-74350000D03*
X114950000Y-74350000D03*
%TD*%
D20*
%TO.C,R15*%
X173055000Y-93000000D03*
X173055000Y-91000000D03*
%TD*%
D19*
%TO.C,R22*%
X177000000Y-109000000D03*
X179000000Y-109000000D03*
%TD*%
D57*
%TO.C,D5*%
X170000000Y-118800000D03*
X170000000Y-123200000D03*
%TD*%
D58*
%TO.C,Q3*%
X151680000Y-121970000D03*
X151680000Y-121320000D03*
X151680000Y-120680000D03*
X151680000Y-120030000D03*
X148820000Y-120030000D03*
X148820000Y-120680000D03*
X148820000Y-121320000D03*
X148820000Y-121970000D03*
D59*
X149690000Y-121000000D03*
%TD*%
D20*
%TO.C,R16*%
X154055000Y-89000000D03*
X154055000Y-87000000D03*
%TD*%
D28*
%TO.C,C25*%
X160000000Y-112932500D03*
X160000000Y-115007500D03*
%TD*%
D42*
%TO.C,D3*%
X134825000Y-80805000D03*
X132775000Y-80805000D03*
%TD*%
D19*
%TO.C,R21*%
X177000000Y-107000000D03*
X179000000Y-107000000D03*
%TD*%
D20*
%TO.C,R17*%
X126200000Y-115060000D03*
X126200000Y-113060000D03*
%TD*%
D51*
%TO.C,U8*%
X145000000Y-66500000D03*
X145000000Y-63960000D03*
X144980000Y-61420000D03*
%TD*%
D28*
%TO.C,C28*%
X162500000Y-112932500D03*
X162500000Y-115007500D03*
%TD*%
D16*
%TO.C,TP25*%
X145000000Y-77000000D03*
%TD*%
D60*
%TO.C,J1*%
X116210000Y-119670000D03*
X116210000Y-128330000D03*
D61*
X112030000Y-128330000D03*
X112030000Y-119670000D03*
D62*
X116970000Y-120650000D03*
X116970000Y-121450000D03*
X116970000Y-122750000D03*
X116970000Y-123750000D03*
X116970000Y-124250000D03*
X116970000Y-125250000D03*
X116970000Y-126550000D03*
X116970000Y-127350000D03*
X116970000Y-127050000D03*
X116970000Y-126250000D03*
X116970000Y-125750000D03*
X116970000Y-124750000D03*
X116970000Y-123250000D03*
X116970000Y-122250000D03*
X116970000Y-121750000D03*
X116970000Y-120950000D03*
%TD*%
D28*
%TO.C,C26*%
X167500000Y-112932500D03*
X167500000Y-115007500D03*
%TD*%
D19*
%TO.C,R20*%
X177000000Y-105000000D03*
X179000000Y-105000000D03*
%TD*%
D49*
%TO.C,Q1*%
X143405000Y-83175000D03*
X142135000Y-83175000D03*
X140865000Y-83175000D03*
X139595000Y-83175000D03*
D44*
X141500000Y-86675000D03*
D50*
X143495000Y-88925000D03*
X142165000Y-88925000D03*
X140835000Y-88925000D03*
X139505000Y-88925000D03*
%TD*%
D26*
%TO.C,DRV*%
X150275000Y-116000000D03*
D27*
X151725000Y-116000000D03*
%TD*%
D53*
%TO.C,R11*%
X135400000Y-135000000D03*
X133400000Y-135000000D03*
%TD*%
D63*
%TO.C,U7*%
X113710000Y-77250000D03*
X113710000Y-79790000D03*
X113730000Y-82330000D03*
X113730000Y-84870000D03*
X116250000Y-77250000D03*
X116250000Y-79790000D03*
X116250000Y-82330000D03*
X116250000Y-84870000D03*
%TD*%
D20*
%TO.C,R26*%
X137055000Y-89000000D03*
X137055000Y-87000000D03*
%TD*%
D43*
%TO.C,Q5*%
X184150000Y-88825000D03*
X185420000Y-88825000D03*
X186690000Y-88825000D03*
X187960000Y-88825000D03*
D44*
X186055000Y-85325000D03*
D45*
X184060000Y-83075000D03*
X185390000Y-83075000D03*
X186720000Y-83075000D03*
X188050000Y-83075000D03*
%TD*%
D28*
%TO.C,CW*%
X130250000Y-112992500D03*
X130250000Y-115067500D03*
%TD*%
D64*
%TO.C,F1*%
X148000000Y-125012500D03*
X148000000Y-127987500D03*
%TD*%
D56*
%TO.C,U14*%
X119950000Y-71650000D03*
X119000000Y-71650000D03*
X118050000Y-71650000D03*
X118050000Y-74350000D03*
X119000000Y-74350000D03*
X119950000Y-74350000D03*
%TD*%
D16*
%TO.C,TP7*%
X160000000Y-77000000D03*
%TD*%
%TO.C,TP4*%
X184200000Y-77000000D03*
%TD*%
D28*
%TO.C,CU*%
X117500000Y-112992500D03*
X117500000Y-115067500D03*
%TD*%
D20*
%TO.C,R24*%
X154500000Y-103000000D03*
X154500000Y-101000000D03*
%TD*%
D53*
%TO.C,R8*%
X157462500Y-121000000D03*
X155462500Y-121000000D03*
%TD*%
D28*
%TO.C,C29*%
X172000000Y-99962500D03*
X172000000Y-102037500D03*
%TD*%
D19*
%TO.C,R1*%
X128250000Y-80750000D03*
X130250000Y-80750000D03*
%TD*%
D28*
%TO.C,C23*%
X156500000Y-112932500D03*
X156500000Y-115007500D03*
%TD*%
D19*
%TO.C,R6*%
X163750000Y-120750000D03*
X165750000Y-120750000D03*
%TD*%
D38*
%TO.C,CN4*%
X140250000Y-65850000D03*
X139000000Y-65850000D03*
X137750000Y-65850000D03*
D65*
X135900000Y-62150000D03*
X142100000Y-62150000D03*
%TD*%
D16*
%TO.C,TP3*%
X173055000Y-84000000D03*
%TD*%
M02*
