M48
; DRILL file {KiCad 9.0.2-rc1} date 2025-08-19T16:09:16+1000
; FORMAT={-:-/ absolute / inch / decimal}
; #@! TF.CreationDate,2025-08-19T16:09:16+10:00
; #@! TF.GenerationSoftware,Kicad,Pcbnew,9.0.2-rc1
; #@! TF.FileFunction,Plated,1,4,PTH
FMAT,2
INCH
; #@! TA.AperFunction,Plated,PTH,ViaDrill
T1C0.0098
; #@! TA.AperFunction,Plated,PTH,ComponentDrill
T2C0.0098
; #@! TA.AperFunction,Plated,PTH,ViaDrill
T3C0.0118
; #@! TA.AperFunction,Plated,PTH,ComponentDrill
T4C0.0236
; #@! TA.AperFunction,Plated,PTH,ComponentDrill
T5C0.0315
; #@! TA.AperFunction,Plated,PTH,ComponentDrill
T6C0.0433
; #@! TA.AperFunction,Plated,PTH,ComponentDrill
T7C0.0748
; #@! TA.AperFunction,Plated,PTH,ComponentDrill
T8C0.1142
%
G90
G05
T1
X4.3642Y-3.4764
X4.3894Y-4.3504
X4.3894Y-4.3898
X4.4094Y-4.065
X4.4488Y-4.0157
X4.4882Y-2.8209
X4.4882Y-2.9272
X4.4882Y-3.9961
X4.5079Y-4.2126
X4.5394Y-3.4744
X4.5394Y-4.1732
X4.5512Y-3.7165
X4.5669Y-3.6535
X4.5894Y-4.1732
X4.6382Y-3.9409
X4.6382Y-3.9961
X4.6382Y-4.0512
X4.6394Y-4.1732
X4.6457Y-3.4547
X4.6654Y-5.0492
X4.685Y-2.8209
X4.685Y-2.9272
X4.685Y-3.4547
X4.6933Y-3.9409
X4.6933Y-3.9961
X4.6933Y-4.0512
X4.7337Y-4.5768
X4.7337Y-4.626
X4.7441Y-3.4547
X4.7441Y-4.3701
X4.7484Y-3.9409
X4.7484Y-3.9961
X4.7484Y-4.0512
X4.7638Y-5.4331
X4.7841Y-2.6778
X4.7933Y-3.4547
X4.8031Y-5.4331
X4.8189Y-2.7461
X4.8425Y-5.4331
X4.8524Y-3.4547
X4.8819Y-5.4331
X4.8898Y-3.7205
X4.8917Y-2.6378
X4.9213Y-5.4331
X4.9252Y-2.7461
X4.9606Y-5.4331
X4.9783Y-2.7638
X5.0Y-5.4331
X5.0098Y-3.376
X5.015Y-2.6575
X5.0295Y-2.5197
X5.0394Y-5.4331
X5.0492Y-2.9429
X5.0492Y-3.061
X5.0492Y-3.1791
X5.0591Y-3.376
X5.0787Y-5.4331
X5.1083Y-2.687
X5.1083Y-3.376
X5.1181Y-5.4331
X5.1575Y-5.0886
X5.1575Y-5.4331
X5.1969Y-5.4331
X5.2081Y-4.962
X5.2362Y-5.4331
X5.2376Y-4.9325
X5.2461Y-5.0886
X5.2671Y-4.903
X5.2756Y-5.4331
X5.3081Y-3.0616
X5.31Y-2.8488
X5.31Y-2.9508
X5.315Y-5.4331
X5.3248Y-5.0886
X5.3543Y-5.4331
X5.3937Y-5.4331
X5.4193Y-2.6969
X5.4193Y-2.7362
X5.4331Y-5.4331
X5.4646Y-3.5472
X5.4646Y-3.5866
X5.4646Y-3.626
X5.4646Y-3.6614
X5.4646Y-3.7008
X5.4646Y-3.7402
X5.4724Y-5.4331
X5.5039Y-3.5472
X5.5039Y-3.5866
X5.5039Y-3.626
X5.5039Y-3.6614
X5.5039Y-3.7008
X5.5039Y-3.7402
X5.5118Y-5.4331
X5.5256Y-2.6988
X5.5256Y-2.7362
X5.5256Y-2.7736
X5.5433Y-3.5472
X5.5433Y-3.5866
X5.5433Y-3.626
X5.5433Y-3.6614
X5.5433Y-3.7008
X5.5433Y-3.7402
X5.5512Y-5.4331
X5.5827Y-3.5472
X5.5827Y-3.5866
X5.5827Y-3.626
X5.5827Y-3.6654
X5.5827Y-3.7047
X5.5827Y-3.7441
X5.5906Y-5.4331
X5.622Y-3.5472
X5.622Y-3.5866
X5.622Y-3.626
X5.622Y-3.6654
X5.622Y-3.7047
X5.622Y-3.7441
X5.6299Y-5.4331
X5.6614Y-3.5472
X5.6614Y-3.5866
X5.6614Y-3.626
X5.6614Y-3.6654
X5.6614Y-3.7047
X5.6614Y-3.7441
X5.6693Y-5.4331
X5.7087Y-4.4882
X5.7087Y-4.6063
X5.7087Y-5.4331
X5.7362Y-3.5591
X5.7362Y-3.5984
X5.7362Y-3.6378
X5.7362Y-3.6732
X5.7362Y-3.7126
X5.7362Y-3.752
X5.748Y-5.4331
X5.7756Y-3.5591
X5.7756Y-3.5984
X5.7756Y-3.6378
X5.7756Y-3.6732
X5.7756Y-3.7126
X5.7756Y-3.752
X5.7874Y-5.4331
X5.815Y-3.5591
X5.815Y-3.5984
X5.815Y-3.6378
X5.815Y-3.6732
X5.815Y-3.7126
X5.815Y-3.752
X5.8268Y-5.4331
X5.8504Y-3.5591
X5.8504Y-3.5984
X5.8504Y-3.6378
X5.8504Y-3.6732
X5.8504Y-3.7126
X5.8504Y-3.752
X5.8661Y-4.4882
X5.8661Y-4.6063
X5.8661Y-5.4331
X5.8898Y-3.5591
X5.8898Y-3.5984
X5.8898Y-3.6378
X5.8898Y-3.6732
X5.8898Y-3.7126
X5.8898Y-3.752
X5.9252Y-4.0566
X5.9291Y-3.752
X5.9646Y-3.752
X5.9744Y-4.8327
X5.9926Y-4.1634
X5.999Y-4.8573
X6.0039Y-3.752
X6.0039Y-4.0551
X6.0236Y-4.8819
X6.0433Y-3.752
X6.0827Y-4.5276
X6.1142Y-2.4094
X6.1535Y-2.4094
X6.1614Y-4.5279
X6.1929Y-2.4094
X6.1993Y-4.8425
X6.2008Y-3.5512
X6.2008Y-3.5906
X6.2008Y-3.6299
X6.2323Y-2.4094
X6.2402Y-3.5512
X6.2402Y-3.5906
X6.2402Y-3.6299
X6.2402Y-3.6654
X6.2795Y-3.5512
X6.2795Y-3.5906
X6.2795Y-3.6299
X6.2795Y-3.6654
X6.2992Y-4.5279
X6.3189Y-3.5512
X6.3189Y-3.5906
X6.3189Y-3.6299
X6.3189Y-3.6654
X6.3287Y-5.315
X6.3287Y-5.3543
X6.3287Y-5.3937
X6.3583Y-3.5512
X6.3583Y-3.5906
X6.3583Y-3.6299
X6.3583Y-3.6654
X6.3681Y-3.7781
X6.3681Y-5.315
X6.3681Y-5.3543
X6.3681Y-5.3937
X6.3976Y-3.5512
X6.3976Y-3.5906
X6.3976Y-3.6299
X6.3976Y-3.6654
X6.4075Y-5.315
X6.4075Y-5.3543
X6.4075Y-5.3937
X6.4449Y-2.4055
X6.4469Y-3.7781
X6.4469Y-4.7539
X6.4469Y-5.315
X6.4469Y-5.3543
X6.4469Y-5.3937
X6.4843Y-2.4055
X6.5118Y-3.5748
X6.5118Y-3.6142
X6.5118Y-3.6535
X6.5236Y-2.4055
X6.5512Y-3.5748
X6.5512Y-3.6142
X6.5512Y-3.6535
X6.5512Y-3.689
X6.563Y-2.4055
X6.5906Y-3.5748
X6.5906Y-3.6142
X6.5906Y-3.6535
X6.5906Y-3.689
X6.5906Y-3.7244
X6.5945Y-4.5279
X6.6299Y-3.5748
X6.6299Y-3.6142
X6.6299Y-3.6535
X6.6299Y-3.689
X6.6299Y-3.7205
X6.6299Y-3.7598
X6.6693Y-3.7205
X6.6693Y-3.7598
X6.6693Y-3.7992
X6.7087Y-3.7205
X6.7087Y-3.7598
X6.7087Y-3.7992
X6.7323Y-5.0787
X6.7323Y-5.1181
X6.7323Y-5.1575
X6.7323Y-5.1969
X6.7323Y-5.2362
X6.7323Y-5.2756
X6.7323Y-5.315
X6.7323Y-5.3543
X6.7323Y-5.3937
X6.748Y-3.7205
X6.748Y-3.7598
X6.748Y-3.7992
X6.7677Y-2.4173
X6.7717Y-5.0787
X6.7717Y-5.1181
X6.7717Y-5.1575
X6.7717Y-5.1969
X6.7717Y-5.2362
X6.7717Y-5.2756
X6.7717Y-5.315
X6.7717Y-5.3543
X6.7717Y-5.3937
X6.8071Y-2.4173
X6.811Y-5.0787
X6.811Y-5.1181
X6.811Y-5.1575
X6.811Y-5.1969
X6.811Y-5.2362
X6.811Y-5.2756
X6.811Y-5.315
X6.811Y-5.3543
X6.811Y-5.3937
X6.8465Y-2.4173
X6.8504Y-5.0787
X6.8504Y-5.1181
X6.8504Y-5.1575
X6.8504Y-5.1969
X6.8504Y-5.2362
X6.8504Y-5.2756
X6.8504Y-5.315
X6.8504Y-5.3543
X6.8504Y-5.3937
X6.8858Y-2.4173
X6.8898Y-5.0787
X6.8898Y-5.1181
X6.8898Y-5.1575
X6.8898Y-5.1969
X6.8898Y-5.2362
X6.8898Y-5.2756
X6.8898Y-5.315
X6.8898Y-5.3543
X6.8898Y-5.3937
X6.9291Y-5.0787
X6.9291Y-5.1181
X6.9291Y-5.1575
X6.9291Y-5.1969
X6.9291Y-5.2362
X6.9291Y-5.2756
X6.9291Y-5.315
X6.9291Y-5.3543
X6.9291Y-5.3937
X6.9409Y-3.5472
X6.9409Y-3.5866
X6.9409Y-3.626
X6.9409Y-3.6614
X6.9409Y-3.7008
X6.9409Y-3.7402
X6.9409Y-3.7756
X6.9685Y-5.0787
X6.9685Y-5.1181
X6.9685Y-5.1575
X6.9685Y-5.1969
X6.9685Y-5.2362
X6.9685Y-5.2756
X6.9685Y-5.315
X6.9685Y-5.3543
X6.9685Y-5.3937
X6.9803Y-3.5472
X6.9803Y-3.5866
X6.9803Y-3.626
X6.9803Y-3.6614
X6.9803Y-3.7008
X6.9803Y-3.7402
X6.9803Y-3.7756
X7.0079Y-5.0787
X7.0079Y-5.1181
X7.0079Y-5.1575
X7.0079Y-5.1969
X7.0079Y-5.2362
X7.0079Y-5.2756
X7.0079Y-5.315
X7.0079Y-5.3543
X7.0079Y-5.3937
X7.0197Y-3.5472
X7.0197Y-3.5866
X7.0197Y-3.626
X7.0197Y-3.6614
X7.0197Y-3.7008
X7.0197Y-3.7402
X7.0197Y-3.7756
X7.0472Y-4.4783
X7.0472Y-4.5177
X7.0472Y-4.5571
X7.0472Y-4.5965
X7.0472Y-4.6358
X7.0472Y-4.7343
X7.0472Y-4.7736
X7.0472Y-4.813
X7.0472Y-4.8524
X7.0472Y-4.8917
X7.0472Y-5.0787
X7.0472Y-5.1181
X7.0472Y-5.1575
X7.0472Y-5.1969
X7.0472Y-5.2362
X7.0472Y-5.2756
X7.0472Y-5.315
X7.0472Y-5.3543
X7.0472Y-5.3937
X7.0551Y-3.5472
X7.0551Y-3.5866
X7.0551Y-3.626
X7.0551Y-3.6614
X7.0551Y-3.7008
X7.0551Y-3.7402
X7.0551Y-3.7756
X7.0866Y-4.4783
X7.0866Y-4.5177
X7.0866Y-4.5571
X7.0866Y-4.5965
X7.0866Y-4.6358
X7.0866Y-4.7343
X7.0866Y-4.7736
X7.0866Y-4.813
X7.0866Y-4.8524
X7.0866Y-4.8917
X7.0866Y-5.0787
X7.0866Y-5.1181
X7.0866Y-5.1575
X7.0866Y-5.1969
X7.0866Y-5.2362
X7.0866Y-5.2756
X7.0866Y-5.315
X7.0866Y-5.3543
X7.0866Y-5.3937
X7.0945Y-3.5472
X7.0945Y-3.5866
X7.0945Y-3.626
X7.0945Y-3.6614
X7.0945Y-3.7008
X7.0945Y-3.7402
X7.0945Y-3.7756
X7.126Y-4.0256
X7.126Y-4.065
X7.126Y-4.1043
X7.126Y-4.1437
X7.126Y-4.1831
X7.126Y-4.2224
X7.126Y-4.2618
X7.126Y-4.3012
X7.126Y-4.3406
X7.126Y-4.4783
X7.126Y-4.5177
X7.126Y-4.5571
X7.126Y-4.5965
X7.126Y-4.6358
X7.126Y-4.7343
X7.126Y-4.7736
X7.126Y-4.813
X7.126Y-4.8524
X7.126Y-4.8917
X7.1339Y-3.5472
X7.1339Y-3.5866
X7.1339Y-3.626
X7.1339Y-3.6614
X7.1339Y-3.7008
X7.1339Y-3.7402
X7.1339Y-3.7756
X7.1654Y-4.0256
X7.1654Y-4.065
X7.1654Y-4.1043
X7.1654Y-4.1437
X7.1654Y-4.1831
X7.1654Y-4.2224
X7.1654Y-4.2618
X7.1654Y-4.3012
X7.1654Y-4.3406
X7.1654Y-4.4783
X7.1654Y-4.5177
X7.1654Y-4.5571
X7.1654Y-4.5965
X7.1654Y-4.6358
X7.1654Y-4.7343
X7.1654Y-4.7736
X7.1654Y-4.813
X7.1654Y-4.8524
X7.1654Y-4.8917
X7.2047Y-4.0256
X7.2047Y-4.065
X7.2047Y-4.1043
X7.2047Y-4.1437
X7.2047Y-4.1831
X7.2047Y-4.2224
X7.2047Y-4.2618
X7.2047Y-4.3012
X7.2047Y-4.3406
X7.2047Y-4.4783
X7.2047Y-4.5177
X7.2047Y-4.5571
X7.2047Y-4.5965
X7.2047Y-4.6358
X7.2047Y-4.7343
X7.2047Y-4.7736
X7.2047Y-4.813
X7.2047Y-4.8524
X7.2047Y-4.8917
X7.2441Y-4.0256
X7.2441Y-4.065
X7.2441Y-4.1043
X7.2441Y-4.1437
X7.2441Y-4.1831
X7.2441Y-4.2224
X7.2441Y-4.2618
X7.2441Y-4.3012
X7.2441Y-4.3406
X7.2441Y-4.4783
X7.2441Y-4.5177
X7.2441Y-4.5571
X7.2441Y-4.5965
X7.2441Y-4.6358
X7.2441Y-4.7343
X7.2441Y-4.7736
X7.2441Y-4.813
X7.2441Y-4.8524
X7.2441Y-4.8917
X7.2835Y-4.0256
X7.2835Y-4.065
X7.2835Y-4.1043
X7.2835Y-4.1437
X7.2835Y-4.1831
X7.2835Y-4.2224
X7.2835Y-4.2618
X7.2835Y-4.3012
X7.2835Y-4.3406
X7.2835Y-4.4783
X7.2835Y-4.5177
X7.2835Y-4.5571
X7.2835Y-4.5965
X7.2835Y-4.6358
X7.2835Y-4.7343
X7.2835Y-4.7736
X7.2835Y-4.813
X7.2835Y-4.8524
X7.2835Y-4.8917
X7.3228Y-4.4783
X7.3228Y-4.5177
X7.3228Y-4.5571
X7.3228Y-4.5965
X7.3228Y-4.6358
X7.3228Y-4.7343
X7.3228Y-4.7736
X7.3228Y-4.813
X7.3228Y-4.8524
X7.3228Y-4.8917
X7.3622Y-4.4783
X7.3622Y-4.5177
X7.3622Y-4.5571
X7.3622Y-4.5965
X7.3622Y-4.6358
X7.3622Y-4.7343
X7.3622Y-4.7736
X7.3622Y-4.813
X7.3622Y-4.8524
X7.3622Y-4.8917
T2
X6.3297Y-4.065
X6.3297Y-4.1093
X6.3297Y-4.1535
X6.3297Y-4.1978
X6.3297Y-4.2421
X6.374Y-4.065
X6.374Y-4.1093
X6.374Y-4.1535
X6.374Y-4.1978
X6.374Y-4.2421
X6.4183Y-4.065
X6.4183Y-4.1093
X6.4183Y-4.1535
X6.4183Y-4.1978
X6.4183Y-4.2421
X6.4626Y-4.065
X6.4626Y-4.1093
X6.4626Y-4.1535
X6.4626Y-4.1978
X6.4626Y-4.2421
X6.5069Y-4.065
X6.5069Y-4.1093
X6.5069Y-4.1535
X6.5069Y-4.1978
X6.5069Y-4.2421
T3
X4.4897Y-4.4606
X4.4897Y-4.552
X4.6811Y-3.7992
X4.6929Y-4.3307
X4.7894Y-4.7047
X4.9055Y-3.6535
X4.9409Y-4.2323
X4.9685Y-4.4512
X4.9685Y-4.5276
X5.0472Y-4.529
X5.0787Y-4.7535
X5.1378Y-4.3504
X5.2815Y-4.3248
X5.2874Y-3.7362
X5.2913Y-3.874
X5.3322Y-3.5984
X5.4764Y-3.874
X5.5256Y-4.1791
X5.8661Y-4.4488
X5.8661Y-4.5669
X5.9449Y-3.2677
X6.0236Y-4.4488
X6.0236Y-4.5669
X6.0827Y-4.0551
X6.122Y-4.1634
X6.1516Y-3.8091
X6.1588Y-4.0748
X6.1614Y-4.0354
X6.1909Y-4.0157
X6.2303Y-4.0138
X6.2402Y-4.439
X6.3091Y-4.3996
X6.5256Y-3.8386
X6.5945Y-4.4462
X6.6339Y-4.0059
X6.6535Y-3.2677
X6.6535Y-4.1929
X6.6634Y-4.1378
X6.6732Y-4.5279
X6.6929Y-4.0172
X6.7126Y-4.2028
X6.7224Y-4.0551
X6.7709Y-4.174
X6.7717Y-4.2505
X6.9685Y-4.0551
X6.9685Y-4.1339
X6.9685Y-4.2126
X6.9685Y-4.2913
X6.9882Y-3.2776
X7.1063Y-3.8878
X7.4016Y-3.5827
T6
X4.4768Y-3.0413
X4.4768Y-3.1413
X4.4776Y-3.2413
X4.4776Y-3.3413
X4.5768Y-3.0413
X4.5768Y-3.1413
X4.5768Y-3.2413
X4.5768Y-3.3413
X4.8417Y-3.1465
X4.8425Y-3.2465
X4.8425Y-3.3465
X5.7079Y-2.4181
X5.7087Y-2.5181
X5.7087Y-2.6181
X7.3614Y-4.0012
X7.3614Y-4.1012
X7.3622Y-3.8012
X7.3622Y-3.9012
X7.3622Y-4.2012
X7.3622Y-4.3012
T7
X6.1961Y-2.6378
X6.4961Y-2.6378
X6.7961Y-2.6378
T8
X6.8701Y-4.5433
X6.8701Y-4.8268
T4
G00X7.126Y-4.4193
M15
G01X7.0866Y-4.4193
M16
G05
G00X7.126Y-4.9508
M15
G01X7.0866Y-4.9508
M16
G05
T5
G00X4.4224Y-4.7114
M15
G01X4.3988Y-4.7114
M16
G05
G00X4.4224Y-5.0524
M15
G01X4.3988Y-5.0524
M16
G05
G00X4.5909Y-4.7114
M15
G01X4.5594Y-4.7114
M16
G05
G00X4.5909Y-5.0524
M15
G01X4.5594Y-5.0524
M16
G05
M30
